<svg width="24" height="24" viewBox="0 0 24 24" fill="none" xmlns="http://www.w3.org/2000/svg">
<g clip-path="url(#clip0_1051_8584)">
<path d="M18.31 11.7C18.2087 10.3539 17.7571 9.05769 17 7.94004C16.2172 6.7808 15.0922 5.89472 13.7818 5.40534C12.4714 4.91597 11.041 4.84769 9.68999 5.21004C8.34287 5.51681 7.11908 6.22149 6.17753 7.23259C5.23597 8.24369 4.62014 9.5145 4.40999 10.88C4.33477 11.4074 4.33477 11.9427 4.40999 12.47C4.48703 13.0185 4.68888 13.5419 4.99999 14C5.54999 14.78 6.39999 15 6.82999 15.61C6.99659 15.8453 7.07129 16.1335 7.03999 16.42C7.03726 16.4555 7.04158 16.4912 7.05268 16.525C7.06379 16.5588 7.08146 16.5901 7.1047 16.617C7.12793 16.644 7.15626 16.6661 7.18806 16.682C7.21986 16.698 7.2545 16.7075 7.28999 16.71H7.56999C8.28596 16.9078 9.01421 17.0582 9.74999 17.16C10.0651 17.1999 10.3824 17.22 10.7 17.22H11.65C12.38 17.22 13.1 17.08 13.84 16.98C13.8807 16.9787 13.9208 16.9694 13.9579 16.9527C13.995 16.9359 14.0285 16.9119 14.0563 16.8822C14.0842 16.8525 14.1059 16.8176 14.1203 16.7795C14.1346 16.7413 14.1413 16.7008 14.14 16.66C14.1387 16.6184 14.1291 16.5775 14.1117 16.5397C14.0943 16.5019 14.0695 16.468 14.0387 16.44C14.0079 16.412 13.9717 16.3905 13.9325 16.3768C13.8932 16.363 13.8515 16.3573 13.81 16.36L11.65 16.24H10.73H9.80999H7.64999H7.58999C7.59038 15.9077 7.4892 15.5832 7.29999 15.31C6.88999 14.72 6.05999 14.45 5.53999 13.67C5.31112 13.2858 5.17104 12.8553 5.12999 12.41C5.06807 11.9416 5.07481 11.4666 5.14999 11C5.37338 9.81134 5.94679 8.71648 6.79668 7.8559C7.64657 6.99532 8.73418 6.40827 9.91999 6.17004C11.0735 5.87179 12.2912 5.93861 13.4051 6.36127C14.5191 6.78394 15.4746 7.54166 16.14 8.53004C16.793 9.48995 17.1858 10.6029 17.28 11.76C17.3417 12.315 17.2844 12.8767 17.112 13.4078C16.9395 13.9389 16.6559 14.4272 16.28 14.84C16.1276 14.9916 15.9673 15.1351 15.8 15.27C15.35 15.62 14.9 15.9 14.46 16.27C14.2973 16.4315 14.177 16.6308 14.11 16.85C14.0163 17.1786 13.9428 17.5125 13.89 17.85C13.8801 18.0802 13.8037 18.3025 13.67 18.49C13.0488 19.0229 12.2475 19.2983 11.43 19.26C10.1786 19.2214 8.94482 18.9537 7.78999 18.47C7.87999 18.31 7.78999 17.82 7.78999 17.52C7.78483 17.4369 7.74748 17.3591 7.68586 17.3031C7.62424 17.2471 7.54322 17.2173 7.45999 17.22C7.41925 17.2226 7.37941 17.2331 7.34277 17.2511C7.30612 17.2691 7.27339 17.2941 7.24644 17.3248C7.2195 17.3555 7.19887 17.3911 7.18575 17.4298C7.17263 17.4684 7.16728 17.5093 7.16999 17.55C7.16999 17.95 7.09999 18.46 7.16999 18.68C7.18358 18.748 7.21341 18.8117 7.25694 18.8657C7.30047 18.9197 7.35641 18.9624 7.41999 18.99C8.70312 19.5824 10.0884 19.9219 11.5 19.99C12.5172 20.0571 13.5208 19.7274 14.3 19.07C14.4603 18.9144 14.5804 18.7223 14.65 18.51C14.7548 18.1832 14.835 17.8489 14.89 17.51C14.8852 17.3337 14.923 17.1588 15 17C15.44 16.62 15.88 16.37 16.32 16C16.5275 15.8469 16.7216 15.6763 16.9 15.49C17.3933 14.9966 17.7746 14.4026 18.0179 13.7486C18.2612 13.0947 18.3608 12.396 18.31 11.7Z" fill="black"/>
<path d="M9.69 14.0001C9.75 13.4201 9.79 12.83 9.84 12.25C9.99618 12.4113 10.1747 12.5494 10.37 12.66C10.6894 12.8621 11.0623 12.9631 11.44 12.95C11.7913 12.9402 12.1347 12.8441 12.44 12.67V13.5C12.4359 14.1502 12.4894 14.7994 12.6 15.44C12.6 15.65 13.1 15.78 13.2 15.44C13.1393 14.7948 13.1393 14.1453 13.2 13.5C13.3393 12.6213 13.5364 11.7528 13.79 10.9C13.8218 10.8036 13.8192 10.6991 13.7828 10.6044C13.7463 10.5096 13.6782 10.4303 13.59 10.38C13.4996 10.3111 13.3864 10.279 13.2732 10.2901C13.16 10.3013 13.0553 10.3548 12.98 10.44C12.94 10.4889 12.9064 10.5427 12.88 10.6001L12.77 10.82L12.53 11.21C12.3951 11.3983 12.2211 11.5552 12.02 11.67C11.8407 11.7849 11.6329 11.8473 11.42 11.8501C11.1898 11.8482 10.9673 11.767 10.79 11.62C10.573 11.4625 10.3951 11.2572 10.27 11.0201L10.09 10.57C10.09 10.48 10.02 10.26 10 10.2C9.95343 10.138 9.89304 10.0876 9.82361 10.0528C9.75418 10.0181 9.67763 10 9.6 10C9.52023 9.97943 9.43638 9.98062 9.35722 10.0035C9.27806 10.0264 9.20649 10.0701 9.15 10.13C8.83 10.47 9.08 12.39 8.94 14.62C8.96453 14.836 8.96453 15.0541 8.94 15.2701C8.94 15.6901 9.41 15.8101 9.52 15.37C9.62645 14.9209 9.68345 14.4615 9.69 14.0001Z" fill="black"/>
<path d="M3.07 6.18005C2.94611 6.03118 2.80887 5.89395 2.66 5.77005L2.2 5.43005C1.83 5.19005 1.44 5.00005 1.05 4.78005C0.981945 4.73225 0.897952 4.71283 0.81582 4.7259C0.733688 4.73897 0.65987 4.78349 0.610003 4.85005C0.562769 4.91652 0.54363 4.99893 0.556733 5.07942C0.569835 5.15991 0.614124 5.23199 0.680003 5.28005C0.980003 5.59005 1.27 5.90005 1.58 6.20005C1.71 6.33005 1.84 6.46005 1.97 6.57005C2.1 6.68005 2.24 6.80005 2.38 6.91005C2.72638 7.14575 3.06017 7.39943 3.38 7.67005C3.43056 7.72013 3.49884 7.74822 3.57 7.74822C3.64116 7.74822 3.70944 7.72013 3.76 7.67005C3.78981 7.64842 3.81488 7.62092 3.83367 7.58924C3.85246 7.55757 3.86456 7.52238 3.86925 7.48585C3.87393 7.44932 3.87109 7.41222 3.8609 7.37683C3.85071 7.34143 3.83339 7.3085 3.81 7.28005C3.60634 6.88621 3.35804 6.51712 3.07 6.18005Z" fill="black"/>
<path d="M7.04999 1.72002C7.09987 1.90448 7.16338 2.08497 7.23999 2.26002C7.30999 2.43002 7.37999 2.60002 7.46999 2.77002C7.67999 3.16002 7.92999 3.51002 8.14999 3.91002C8.18217 3.96874 8.23433 4.01398 8.29701 4.03755C8.35969 4.06111 8.42874 4.06143 8.49163 4.03845C8.55452 4.01547 8.6071 3.97071 8.63982 3.91229C8.67254 3.85387 8.68325 3.78566 8.66999 3.72002C8.60515 3.27195 8.51501 2.82791 8.39999 2.39002C8.34999 2.21002 8.27999 2.03002 8.20999 1.85002C8.15181 1.67539 8.08164 1.50499 7.99999 1.34002C7.73999 0.940024 7.49999 0.580024 7.26999 0.190024C7.25667 0.149836 7.23525 0.112804 7.20706 0.0812115C7.17887 0.0496192 7.14451 0.0241361 7.10609 0.00633382C7.06768 -0.0114685 7.02602 -0.0212128 6.9837 -0.022298C6.94137 -0.0233833 6.89927 -0.0157866 6.85999 2.35625e-05C6.78487 0.0310899 6.72495 0.0904236 6.69315 0.165242C6.66136 0.240061 6.66022 0.324376 6.68999 0.400024C6.80999 0.870024 6.90999 1.30002 7.04999 1.72002Z" fill="black"/>
<path d="M14.52 4.35001C14.5555 4.35418 14.5915 4.35125 14.6258 4.34141C14.6602 4.33157 14.6922 4.31501 14.7201 4.29269C14.7481 4.27036 14.7712 4.24272 14.7884 4.21136C14.8055 4.18 14.8163 4.14555 14.82 4.11001C14.9614 3.74629 15.0849 3.37584 15.19 3.00001C15.24 2.78001 15.26 2.55001 15.29 2.33001C15.2992 1.99422 15.336 1.65976 15.4 1.33001C15.4217 1.29258 15.4358 1.25126 15.4415 1.20839C15.4472 1.16552 15.4443 1.12194 15.4332 1.08016C15.4221 1.03837 15.4028 0.999189 15.3765 0.964848C15.3502 0.930507 15.3174 0.901679 15.28 0.880011C15.2426 0.858343 15.2013 0.844259 15.1584 0.838562C15.1155 0.832866 15.0719 0.83567 15.0302 0.846813C14.9884 0.857956 14.9492 0.87722 14.9148 0.903506C14.8805 0.929792 14.8517 0.962584 14.83 1.00001C14.6175 1.30992 14.4461 1.64605 14.32 2.00001C14.2707 2.15076 14.2306 2.30438 14.2 2.46001C14.1901 2.61652 14.1901 2.7735 14.2 2.93001C14.2 3.31001 14.28 3.65001 14.31 3.99001C14.2995 4.02745 14.2966 4.06661 14.3016 4.10518C14.3065 4.14375 14.3191 4.18093 14.3387 4.21451C14.3583 4.2481 14.3845 4.2774 14.4156 4.30068C14.4467 4.32396 14.4822 4.34073 14.52 4.35001Z" fill="black"/>
<path d="M23.12 7.50005C22.65 7.50005 22.21 7.43005 21.75 7.43005H21.16C20.97 7.43005 20.77 7.50005 20.58 7.55005C20.1335 7.70014 19.7016 7.89094 19.29 8.12005C19.2493 8.12607 19.2104 8.14099 19.1761 8.16376C19.1418 8.18653 19.1129 8.21658 19.0915 8.25178C19.0702 8.28698 19.0568 8.32645 19.0525 8.36739C19.0481 8.40833 19.0528 8.44973 19.0663 8.48864C19.0798 8.52755 19.1017 8.56301 19.1304 8.59249C19.1591 8.62198 19.194 8.64476 19.2326 8.65922C19.2711 8.67368 19.3124 8.67946 19.3534 8.67614C19.3945 8.67283 19.4343 8.66051 19.47 8.64005C19.92 8.57005 20.34 8.57005 20.77 8.54005L21.31 8.48005L21.86 8.38005C22.29 8.29005 22.71 8.18005 23.16 8.09005C23.2422 8.08008 23.3176 8.03959 23.3713 7.97661C23.425 7.91363 23.4531 7.83277 23.45 7.75005C23.4355 7.67504 23.3938 7.60803 23.3329 7.56189C23.272 7.51575 23.1962 7.49373 23.12 7.50005Z" fill="black"/>
<path d="M12.92 21.05C12.587 21.0709 12.253 21.0709 11.92 21.05C11.6 21.05 11.28 21 10.92 20.98L9.92 20.93C9.26 20.93 8.61 20.93 7.92 20.86C7.84847 20.845 7.77391 20.8586 7.71225 20.8978C7.65059 20.9371 7.60672 20.9989 7.59 21.07C7.57501 21.1415 7.58858 21.2161 7.62782 21.2778C7.66706 21.3394 7.72885 21.3833 7.8 21.4C8.36056 21.623 8.93939 21.797 9.53 21.92C9.78759 21.9664 10.0483 21.9932 10.31 22C10.5696 22.02 10.8304 22.02 11.09 22C11.7352 21.9473 12.3745 21.8369 13 21.67C13.0815 21.6553 13.1541 21.6096 13.2026 21.5425C13.2511 21.4753 13.2717 21.392 13.26 21.31C13.2476 21.2313 13.2054 21.1603 13.1421 21.1119C13.0788 21.0635 12.9992 21.0413 12.92 21.05Z" fill="black"/>
<path d="M11.84 23.07C11.5052 23.0602 11.1712 23.0302 10.84 22.98C10.6203 22.9651 10.3997 22.9651 10.18 22.98C9.78 22.98 9.41 23.08 9.02 23.12C8.98451 23.1158 8.94854 23.1188 8.91418 23.1286C8.87983 23.1384 8.84776 23.155 8.81986 23.1773C8.79195 23.1997 8.76876 23.2273 8.75161 23.2587C8.73447 23.29 8.72373 23.3245 8.72 23.36C8.71654 23.4333 8.74007 23.5053 8.78614 23.5625C8.83221 23.6196 8.89762 23.6579 8.97 23.67C9.30696 23.799 9.65082 23.9091 10 24C10.1487 24.0265 10.2991 24.0432 10.45 24.05C10.6032 24.0603 10.7568 24.0603 10.91 24.05C11.2885 23.9769 11.6552 23.8524 12 23.68C12.0809 23.6628 12.1516 23.6141 12.1966 23.5447C12.2416 23.4753 12.2572 23.3909 12.24 23.31C12.2228 23.2291 12.1741 23.1584 12.1047 23.1134C12.0353 23.0684 11.9509 23.0528 11.87 23.07H11.84Z" fill="black"/>
</g>
<defs>
<clipPath id="clip0_1051_8584">
<rect width="24" height="24" fill="white"/>
</clipPath>
</defs>
</svg>
